<svg width="80" height="81" viewBox="0 0 80 81" fill="none" xmlns="http://www.w3.org/2000/svg">
<g clip-path="url(#clip0)">
<path d="M60.9776 43.7348C60.9232 43.5169 60.9606 43.2827 61.08 43.0925L72.6454 24.6823C73.2683 23.6907 73.302 22.4868 72.7356 21.4618C72.169 20.4367 71.1317 19.8247 69.9604 19.8247H53.1393C52.8356 19.8247 52.5565 19.6591 52.411 19.3924L42.7836 1.74217C42.2277 0.723085 41.1611 0.0898438 40 0.0898438C38.8389 0.0898438 37.7725 0.723085 37.2164 1.74233L27.589 19.3925C27.4435 19.6591 27.1644 19.8247 26.8607 19.8247H10.0398C8.86849 19.8247 7.83115 20.4367 7.26456 21.4618C6.69812 22.4868 6.73183 23.6907 7.35477 24.6823L11.8575 31.8498C12.2016 32.3973 12.9241 32.5621 13.4715 32.2183C14.019 31.8744 14.184 31.1517 13.84 30.6043L9.33722 23.4369C9.10231 23.063 9.24263 22.7232 9.31365 22.5945C9.38483 22.4657 9.59804 22.1662 10.0398 22.1662H26.8608C28.022 22.1662 29.0887 21.5329 29.6445 20.5137L39.2719 2.86365C39.4848 2.47343 39.8522 2.43129 40.0002 2.43129C40.1481 2.43129 40.5156 2.47343 40.7285 2.86365L50.3557 20.5137C50.9117 21.5331 51.9784 22.1662 53.1395 22.1662H69.9605C70.4023 22.1662 70.6155 22.4657 70.6867 22.5945C70.7577 22.7232 70.898 23.063 70.6631 23.4369L59.0977 41.8471C58.6407 42.5744 58.4981 43.4697 58.7064 44.3028L63.6619 64.1246C63.7803 64.5978 63.4947 64.8808 63.3664 64.9806C63.2381 65.0801 62.8934 65.2876 62.4639 65.056L46.213 56.3055V48.6323C46.213 47.9858 45.689 47.4616 45.0424 47.4616C44.3957 47.4616 43.8717 47.9858 43.8717 48.6323V55.0448L41.5034 53.7695C40.5621 53.2629 39.4384 53.2627 38.4969 53.7695L35.9725 55.1287V40.5384L37.4767 39.1859L38.288 40.1028C38.702 40.5704 39.2976 40.8387 39.9221 40.8387C40.5466 40.8387 41.1421 40.5704 41.5563 40.1026L42.3675 39.1859L43.8717 40.5384V43.6433C43.8717 44.2898 44.3957 44.8139 45.0424 44.8139C45.689 44.8139 46.213 44.2898 46.213 43.6433V41.1692L47.7467 41.1451C49.8173 41.1127 51.5018 39.4013 51.5018 37.3306V36.2695C51.5018 34.1659 49.7903 32.4546 47.6869 32.4546C45.5832 32.4546 43.8719 34.1659 43.8719 36.2695V37.3899L43.814 37.3377C43.378 36.946 42.8158 36.7482 42.2305 36.7818C41.6453 36.8152 41.109 37.0754 40.7206 37.5143L39.9223 38.4164L39.1239 37.5143C38.7355 37.0754 38.1992 36.8152 37.6141 36.7818C37.0255 36.7474 36.4664 36.9458 36.0306 37.3379L35.9727 37.39V36.2696C35.9727 34.1661 34.2612 32.4547 32.1576 32.4547C30.054 32.4547 28.3427 34.1661 28.3427 36.2696V37.3307C28.3427 39.4015 30.0272 41.1127 32.098 41.1453L33.6315 41.1693V56.3896L17.5363 65.056C17.1064 65.2873 16.7621 65.0803 16.6338 64.9806C16.5056 64.8808 16.22 64.5977 16.3383 64.1244L21.2936 44.3028C21.5021 43.4694 21.3594 42.5743 20.9024 41.8469L16.5064 34.8491C16.1625 34.3017 15.4399 34.1369 14.8925 34.4806C14.3449 34.8246 14.1799 35.5471 14.524 36.0947L18.92 43.0925C19.0395 43.2827 19.0768 43.5167 19.0222 43.7348L14.0669 63.5566C13.758 64.7928 14.1909 66.0466 15.1967 66.8288C15.772 67.2761 16.4504 67.5037 17.1357 67.5037C17.649 67.5037 18.1661 67.376 18.6463 67.1174L25.883 63.2207V66.8619H25.7267C25.0801 66.8619 24.5561 67.386 24.5561 68.0325C24.5561 68.679 25.0801 69.2032 25.7267 69.2032H26.0495C26.6411 71.684 28.7588 73.579 31.3524 73.8342L33.8391 77.5399C34.9105 79.1365 36.698 80.0895 38.6208 80.0895H41.3795C43.3022 80.0895 45.0898 79.1365 46.1612 77.5399L48.6618 73.8136C51.1773 73.494 53.2161 71.6294 53.7947 69.2032H54.4982C55.1449 69.2032 55.6688 68.679 55.6688 68.0325C55.6688 67.386 55.1449 66.8619 54.4982 66.8619H53.9613V63.1366L61.354 67.1172C62.4758 67.7214 63.7978 67.6108 64.8036 66.8286C65.8094 66.0465 66.2424 64.7926 65.9334 63.5564L60.9776 43.7348ZM46.2128 36.2695C46.2128 35.4569 46.8739 34.7959 47.6866 34.7959C48.4992 34.7959 49.1602 35.4569 49.1602 36.2695V37.3306C49.1602 38.1305 48.5095 38.7915 47.7097 38.8042L46.2127 38.8276V36.2695H46.2128ZM30.6837 37.3307V36.2696C30.6837 35.4571 31.3447 34.796 32.1573 34.796C32.97 34.796 33.6311 35.4571 33.6311 36.2696V38.8279L32.1342 38.8045C31.3343 38.7917 30.6837 38.1306 30.6837 37.3307ZM28.2242 61.9601L31.7544 60.0593H48.2457L51.6198 61.8762V62.2901H28.2242V61.9601ZM39.6068 55.8311C39.8531 55.6984 40.147 55.6986 40.3933 55.8311L43.8976 57.718H36.1027L39.6068 55.8311ZM44.217 76.2355C43.5812 77.1829 42.5203 77.7486 41.3793 77.7486H38.6207C37.4797 77.7486 36.4189 77.1829 35.783 76.2355L34.1919 73.8642H45.8081L44.217 76.2355ZM48.3729 66.862C47.7263 66.862 47.2023 67.3862 47.2023 68.0327C47.2023 68.6792 47.7263 69.2033 48.3729 69.2033H51.3431C50.7866 70.5625 49.4501 71.5229 47.8928 71.5229H31.9513C30.394 71.5229 29.0576 70.5625 28.501 69.2033H43.3839C44.0306 69.2033 44.5546 68.6792 44.5546 68.0327C44.5546 67.3862 44.0306 66.862 43.3839 66.862H28.2242V64.6312H51.6198V66.862H48.3729Z" fill="white"/>
<path d="M55.1569 9.93684C55.3074 10.0015 55.4639 10.0319 55.6178 10.0319C56.0719 10.0319 56.5039 9.76624 56.6942 9.32248L58.5359 5.03012C58.7907 4.43606 58.5157 3.74772 57.9215 3.49267C57.3271 3.23763 56.6389 3.51281 56.384 4.10703L54.5424 8.39939C54.2877 8.99345 54.5627 9.68195 55.1569 9.93684Z" fill="white"/>
<path d="M60.4246 14.0172C60.6674 14.0172 60.9121 13.942 61.1219 13.7862L64.6988 11.1292C65.2177 10.7436 65.3259 10.0103 64.9404 9.49134C64.5548 8.97236 63.8214 8.86435 63.3026 9.24972L59.7257 11.9068C59.2067 12.2923 59.0985 13.0256 59.4841 13.5446C59.7137 13.8539 60.0669 14.0172 60.4246 14.0172Z" fill="white"/>
<path d="M23.3058 9.32245C23.4962 9.7662 23.9281 10.0319 24.3822 10.0319C24.5361 10.0319 24.6926 10.0013 24.8431 9.9368C25.4373 9.68191 25.7122 8.99358 25.4575 8.39936L23.6158 4.10699C23.3608 3.51277 22.6726 3.23775 22.0784 3.49264C21.4841 3.74753 21.2093 4.43586 21.464 5.03008L23.3058 9.32245Z" fill="white"/>
<path d="M15.3014 11.1292L18.8783 13.7863C19.0881 13.9422 19.3328 14.0173 19.5755 14.0173C19.9333 14.0173 20.2865 13.8539 20.5161 13.5446C20.9016 13.0257 20.7935 12.2924 20.2745 11.9068L16.6976 9.24979C16.1786 8.86426 15.4453 8.97243 15.0598 9.49141C14.6743 10.0104 14.7824 10.7437 15.3014 11.1292Z" fill="white"/>
<path d="M73.4082 44.0063H69.7236C69.077 44.0063 68.553 44.5305 68.553 45.177C68.553 45.8235 69.077 46.3476 69.7236 46.3476H73.4082C74.0549 46.3476 74.5788 45.8235 74.5788 45.177C74.5788 44.5305 74.0549 44.0063 73.4082 44.0063Z" fill="white"/>
<path d="M72.9099 53.2037L69.3356 50.9014C68.7922 50.5513 68.0675 50.708 67.7174 51.2517C67.3675 51.7952 67.5243 52.5197 68.0677 52.8697L71.6421 55.1719C71.8383 55.2984 72.0577 55.3586 72.275 55.3586C72.6596 55.3586 73.0365 55.1691 73.2604 54.8217C73.6101 54.2782 73.4533 53.5538 72.9099 53.2037Z" fill="white"/>
<path d="M10.2764 46.3476C10.9231 46.3476 11.447 45.8235 11.447 45.177C11.447 44.5305 10.9231 44.0063 10.2764 44.0063H6.59183C5.94516 44.0063 5.42118 44.5305 5.42118 45.177C5.42118 45.8235 5.94516 46.3476 6.59183 46.3476H10.2764Z" fill="white"/>
<path d="M10.6646 50.9014L7.09021 53.2037C6.54687 53.5538 6.39001 54.2782 6.73995 54.8217C6.96393 55.1691 7.34057 55.3586 7.72532 55.3586C7.94244 55.3586 8.16205 55.2982 8.35825 55.1719L11.9326 52.8697C12.476 52.5196 12.6328 51.7952 12.2829 51.2517C11.9325 50.7082 11.2085 50.5513 10.6646 50.9014Z" fill="white"/>
</g>
<defs>
<clipPath id="clip0">
<rect width="80" height="80" fill="white" transform="translate(0 0.0898438)"/>
</clipPath>
</defs>
</svg>
