<svg width="50" height="51" viewBox="0 0 50 51" fill="none" xmlns="http://www.w3.org/2000/svg">
<path d="M47.0703 36.257V4.1572H2.92969V36.257H0V39.8951C0 43.2738 2.74873 46.0226 6.12754 46.0226H43.8725C47.2513 46.0226 50 43.2739 50 39.8951V36.257H47.0703ZM5.85938 7.08688H44.1406V36.257H5.85938V7.08688ZM47.0703 39.8951C47.0703 41.6584 45.6358 43.0929 43.8725 43.0929H6.12754C4.36416 43.0929 2.92969 41.6585 2.92969 39.8951V39.1867H47.0703V39.8951Z" fill="white"/>
<path d="M17.6861 16.493L12.5072 21.6721L17.6861 26.8511L19.7577 24.7795L16.6504 21.6721L19.7577 18.5646L17.6861 16.493Z" fill="white"/>
<path d="M30.2423 18.5646L33.3496 21.6721L30.2423 24.7795L32.3139 26.8511L37.4928 21.6721L32.3139 16.493L30.2423 18.5646Z" fill="white"/>
<path d="M22.0872 27.9893L25.0381 14.7171L27.8974 15.3529L24.9465 28.625L22.0872 27.9893Z" fill="white"/>
</svg>
