<svg width="58" height="59" viewBox="0 0 58 59" fill="none" xmlns="http://www.w3.org/2000/svg">
<g clip-path="url(#clip0)">
<path d="M55.5645 47.2345H53.8626C54.0809 46.809 54.2051 46.3276 54.2051 45.8174L54.2039 16.3649C54.2039 14.6472 52.8064 13.2497 51.0887 13.2497H46.502V12.212C46.502 11.3938 45.8363 10.7281 45.018 10.7281H43.6118V6.46472C43.6118 5.98565 43.3788 5.53377 42.9886 5.25578C42.5984 4.9779 42.0952 4.9054 41.6423 5.06207L38.9661 5.98746C38.5228 6.14085 38.2876 6.62456 38.4409 7.06805C38.5942 7.51143 39.0776 7.74717 39.5215 7.59334L41.9125 6.7665V27.2001L29.8496 31.3716V10.9381L36.0956 8.77815C36.5391 8.62476 36.7742 8.14105 36.6209 7.69756C36.4675 7.25417 35.9842 7.01866 35.5403 7.17227L29 9.43393L16.3577 5.06207C15.9048 4.90529 15.4016 4.9779 15.0114 5.25578C14.6212 5.53377 14.3882 5.98565 14.3882 6.46472V10.7279H12.982C12.1637 10.7279 11.498 11.3937 11.498 12.2119V13.2507H6.91016C5.19236 13.2507 3.79492 14.6483 3.79492 16.366L3.79504 19.3873C3.79504 19.8566 4.17543 20.2369 4.64464 20.2369C5.11386 20.2369 5.49425 19.8565 5.49425 19.3873L5.49414 16.3661C5.49414 15.5852 6.12931 14.95 6.91016 14.95H11.498V16.6493H8.04297C7.81765 16.6493 7.60151 16.7388 7.44224 16.8981C7.28285 17.0574 7.19336 17.2736 7.19336 17.4989L7.19449 44.6857C7.19449 45.155 7.57489 45.5353 8.0441 45.5353L49.957 45.5342C50.1823 45.5342 50.3985 45.4447 50.5579 45.2853C50.7171 45.126 50.8066 44.9099 50.8066 44.6846L50.8055 17.4977C50.8055 17.0284 50.4251 16.6481 49.9559 16.6481H46.502V14.9489H51.0887C51.8696 14.9489 52.5047 15.5841 52.5047 16.3649L52.5059 45.8174C52.5059 46.5982 51.8707 47.2334 51.0898 47.2334L6.91129 47.2345C6.13044 47.2345 5.49527 46.5994 5.49527 45.8185L5.49448 23.0229C5.49448 22.5536 5.11408 22.1733 4.64487 22.1733C4.17566 22.1733 3.79526 22.5537 3.79526 23.0229L3.79605 45.8185C3.79605 46.3283 3.91987 46.8094 4.13794 47.2345H2.43555C1.0926 47.2345 0 48.3271 0 49.6701V52.1623C0 53.5053 1.0926 54.5979 2.43555 54.5979H36.2139C36.6832 54.5979 37.0635 54.2176 37.0635 53.7483C37.0635 53.279 36.6832 52.8987 36.2139 52.8987H2.43555C2.02955 52.8987 1.69922 52.5684 1.69922 52.1624V49.6702C1.69922 49.2642 2.02955 48.9339 2.43555 48.9339H23.2793V49.5308C23.2793 50.7008 24.2312 51.6527 25.4012 51.6527H32.5989C33.7689 51.6527 34.7207 50.7009 34.7207 49.5308V48.9339H55.5645C55.9705 48.9339 56.3008 49.2642 56.3008 49.6702V52.1624C56.3008 52.5684 55.9705 52.8987 55.5645 52.8987H39.9231C39.4538 52.8987 39.0735 53.279 39.0735 53.7483C39.0735 54.2176 39.4538 54.5979 39.9231 54.5979H55.5645C56.9074 54.5979 58 53.5053 58 52.1624V49.6702C58 48.3271 56.9074 47.2345 55.5645 47.2345ZM42.6129 28.7558C43.2103 28.549 43.6118 27.9853 43.6118 27.3532V12.4273H44.8027V31.7148H34.0564L42.6129 28.7558ZM16.0874 6.7665L28.1504 10.9381V31.3716L16.0874 27.2001V6.7665ZM13.1973 12.4273H14.3882V27.3533C14.3882 27.9854 14.7897 28.5491 15.3873 28.756L23.9436 31.7149H13.1973V12.4273ZM49.1063 18.3474L49.1074 43.835L8.8936 43.8361L8.89258 18.3485H11.498V31.93C11.498 32.7482 12.1637 33.414 12.982 33.414H45.018C45.8363 33.414 46.502 32.7482 46.502 31.93V18.3474H49.1063ZM33.0215 49.5307C33.0215 49.7638 32.8319 49.9534 32.5989 49.9534H25.4012C25.1681 49.9534 24.9785 49.7638 24.9785 49.5307V48.9337H33.0215V49.5307Z" fill="#4F4F4F"/>
<path d="M40.1595 35.8372H17.8405C17.3713 35.8372 16.9909 36.2174 16.9909 36.6868C16.9909 37.1561 17.3713 37.5364 17.8405 37.5364H40.1595C40.6289 37.5364 41.0091 37.1561 41.0091 36.6868C41.0091 36.2174 40.6287 35.8372 40.1595 35.8372Z" fill="#4F4F4F"/>
<path d="M32.3149 39.4412H17.8405C17.3713 39.4412 16.9909 39.8214 16.9909 40.2908C16.9909 40.7601 17.3713 41.1404 17.8405 41.1404H32.3149C32.7843 41.1404 33.1645 40.7601 33.1645 40.2908C33.1645 39.8214 32.7841 39.4412 32.3149 39.4412Z" fill="#4F4F4F"/>
</g>
<defs>
<clipPath id="clip0">
<rect width="58" height="58" fill="white" transform="translate(0 0.789307)"/>
</clipPath>
</defs>
</svg>
