<svg width="54" height="54" viewBox="0 0 54 54" fill="none" xmlns="http://www.w3.org/2000/svg">
<g clip-path="url(#clip0)">
<path d="M31.7187 29.8169C31.415 29.9227 31.1908 30.1825 31.1306 30.4984C31.0703 30.8143 31.1832 31.1383 31.4266 31.3484C31.6701 31.5585 32.0072 31.6228 32.3109 31.517C39.7859 28.9264 44.2976 21.3168 42.984 13.5154C41.6705 5.71401 34.9157 0.00146484 27.0045 0.00146484C19.0932 0.00146484 12.3384 5.71401 11.0249 13.5154C9.71134 21.3168 14.223 28.9264 21.6981 31.517C22.1678 31.6803 22.6809 31.4319 22.8442 30.9622C23.0075 30.4924 22.7591 29.9793 22.2894 29.816C20.7333 29.273 19.2824 28.4662 18 27.431V26.4509C17.9963 23.6434 19.725 21.1246 22.3461 20.1185C25.1343 22.0938 28.8657 22.0938 31.6539 20.1185C34.2749 21.1246 36.0036 23.6434 36 26.4509V27.4346C34.7198 28.468 33.2717 29.2738 31.7187 29.8169ZM20.7 13.4999C20.7 10.0205 23.5206 7.1999 27 7.1999C30.4794 7.1999 33.3 10.0205 33.3 13.4999C33.3 16.9793 30.4794 19.7999 27 19.7999C23.5222 19.7959 20.7039 16.9777 20.7 13.4999ZM33.12 18.7856C35.9496 15.5175 35.7142 10.6033 32.5853 7.62062C29.4563 4.63789 24.5365 4.63789 21.4075 7.62062C18.2785 10.6033 18.0431 15.5175 20.8728 18.7856C18.2227 20.1405 16.4648 22.7729 16.2288 25.7399C11.0982 19.9577 11.4484 11.1562 17.0221 5.79989C22.5957 0.443561 31.4042 0.443561 36.9779 5.79989C42.5515 11.1562 42.9017 19.9577 37.7712 25.7399C37.5343 22.7711 35.7733 20.1381 33.12 18.7856Z" fill="white"/>
<path d="M19.26 53.6498C19.8103 54.0559 20.5442 54.1121 21.15 53.7947L27.0063 50.7518L32.8617 53.7956C33.4689 54.1112 34.2026 54.0553 34.7549 53.6511C35.3072 53.2469 35.5826 52.5645 35.4654 51.8903L34.353 45.4715L39.06 40.9346C39.5545 40.4578 39.7346 39.7412 39.5242 39.0874C39.3138 38.4335 38.7497 37.9564 38.07 37.8574L31.536 36.9187L28.62 31.057C28.3172 30.4432 27.6907 30.0561 27.0063 30.0598C26.3239 30.0574 25.6995 30.4431 25.3962 31.0543L22.464 36.9187L15.9444 37.8565C15.2643 37.9552 14.6997 38.4325 14.4893 39.0868C14.2789 39.741 14.4593 40.4579 14.9544 40.9346L19.6632 45.4715L18.5499 51.8903C18.4309 52.5643 18.7065 53.2471 19.26 53.6498ZM16.2 39.6385L23.1858 38.6332C23.4777 38.5913 23.7305 38.4091 23.8626 38.1454L27.0054 31.8598L30.1347 38.1436C30.2665 38.4082 30.5198 38.5912 30.8124 38.6332L37.8126 39.6385L32.76 44.5067C32.545 44.714 32.4469 45.0144 32.4981 45.3086L33.6924 52.1999L27.4221 48.941C27.162 48.8058 26.8524 48.8058 26.5923 48.941L20.3211 52.1999L21.5154 45.3104C21.5665 45.0162 21.4684 44.7158 21.2535 44.5085L16.2 39.6385Z" fill="white"/>
<path d="M4.22997 39.7998L3.35067 44.8839C3.2658 45.3579 3.395 45.8451 3.70356 46.2148C4.01212 46.5845 4.46844 46.7987 4.94997 46.8C5.21289 46.7995 5.47185 46.7359 5.70507 46.6146L10.35 44.1972L14.9922 46.62C15.2774 46.7685 15.6202 46.7536 15.8914 46.5809C16.1627 46.4082 16.3212 46.1039 16.3072 45.7826C16.2933 45.4613 16.109 45.1719 15.8238 45.0234L10.7658 42.3864C10.5052 42.2506 10.1948 42.2506 9.93417 42.3864L5.18487 44.8605L6.08487 39.6405C6.13601 39.3463 6.0379 39.0459 5.82297 38.8386L2.00067 35.1486L7.28997 34.389C7.58205 34.3469 7.83493 34.1643 7.96677 33.9003L10.35 29.1356L12.7242 33.8994C12.8561 34.1642 13.1098 34.3472 13.4028 34.389L19.0539 35.199C19.546 35.2693 20.0019 34.9274 20.0722 34.4353C20.1426 33.9432 19.8007 33.4873 19.3086 33.417L14.1246 32.6745L11.8053 28.0196C11.5305 27.4659 10.9646 27.1167 10.3464 27.1196H10.341C9.72953 27.1184 9.17078 27.4656 8.90097 28.0142L6.56997 32.6745L1.40127 33.4161C0.78249 33.4985 0.266161 33.9292 0.0740075 34.5232C-0.118146 35.1171 0.0480672 35.7687 0.501273 36.198L4.22997 39.7998Z" fill="white"/>
<path d="M53.919 34.5202C53.7311 33.9293 53.2194 33.4997 52.605 33.4168L47.43 32.6743L45.1044 28.015C44.8354 27.4648 44.2768 27.1157 43.6644 27.115H43.659C43.0405 27.1117 42.4741 27.4609 42.1992 28.015L39.8808 32.6689L34.6959 33.4114C34.3775 33.4569 34.1077 33.6688 33.9879 33.9672C33.8682 34.2656 33.9167 34.6053 34.1153 34.8582C34.3138 35.1111 34.6322 35.2389 34.9506 35.1934L40.6026 34.3834C40.8955 34.3417 41.1492 34.1586 41.2812 33.8938L43.65 29.1355L46.0287 33.9001C46.1605 34.1641 46.4134 34.3467 46.7055 34.3888L51.9921 35.1475L48.1698 38.8375C47.9548 39.0448 47.8567 39.3452 47.9079 39.6394L48.8124 44.8594L44.0631 42.3826C43.8025 42.2469 43.4921 42.2469 43.2315 42.3826L38.1735 45.0196C37.8883 45.1682 37.704 45.4576 37.69 45.7789C37.6761 46.1001 37.8346 46.4044 38.1058 46.5772C38.3771 46.7499 38.7199 46.7648 39.0051 46.6162L43.65 44.197L48.294 46.6198C48.8436 46.9054 49.5078 46.8541 50.0071 46.4876C50.5065 46.121 50.7544 45.5027 50.6466 44.8927L49.77 39.7996L53.5014 36.1996C53.953 35.7673 54.1155 35.1137 53.919 34.5202Z" fill="white"/>
<path d="M22.05 42.4249C22.0934 42.4247 22.1367 42.4214 22.1796 42.415L25.5645 41.9281C25.8564 41.8862 26.1092 41.704 26.2413 41.4403L27.8073 38.3092C28.0309 37.8644 27.8516 37.3224 27.4068 37.0987C26.9619 36.875 26.42 37.0544 26.1963 37.4992L24.8463 40.2091L21.9258 40.6294C21.458 40.6961 21.1214 41.1132 21.155 41.5845C21.1887 42.0558 21.5811 42.4209 22.0536 42.4204L22.05 42.4249Z" fill="white"/>
</g>
<defs>
<clipPath id="clip0">
<rect width="54" height="54" fill="white"/>
</clipPath>
</defs>
</svg>
