<svg width="56" height="56" viewBox="0 0 56 56" fill="none" xmlns="http://www.w3.org/2000/svg">
<path d="M44.3093 17.9245L38.8436 12.4588C38.731 12.3453 38.589 12.2654 38.4335 12.2282C38.2779 12.191 38.1151 12.1979 37.9633 12.2482C37.8115 12.2985 37.6767 12.3901 37.5742 12.5128C37.4716 12.6355 37.4053 12.7844 37.3827 12.9427C37.2923 13.5746 37.0278 14.1689 36.6187 14.6589C36.2097 15.1489 35.6722 15.5154 35.0666 15.7172C34.461 15.919 33.8112 15.9482 33.1899 15.8015C32.5687 15.6549 32.0005 15.3381 31.5492 14.8867C31.0978 14.4353 30.781 13.8672 30.6343 13.2459C30.4876 12.6247 30.5168 11.9748 30.7187 11.3692C30.9205 10.7636 31.2869 10.2262 31.777 9.81713C32.267 9.40806 32.8613 9.14352 33.4932 9.05315C33.6515 9.03057 33.8004 8.96427 33.9231 8.8617C34.0457 8.75913 34.1374 8.62436 34.1877 8.47255C34.2379 8.32075 34.2448 8.15792 34.2076 8.0024C34.1704 7.84687 34.0906 7.70482 33.977 7.59221L28.5114 2.12658C28.3502 1.96547 28.1317 1.87497 27.9038 1.87497C27.6759 1.87497 27.4574 1.96547 27.2962 2.12658L22.5499 6.87119C22.3162 5.99651 21.8563 5.19878 21.2165 4.55822C20.5767 3.91766 19.7795 3.45687 18.905 3.22217C18.0306 2.98747 17.1098 2.98714 16.2353 3.22122C15.3607 3.4553 14.5631 3.91553 13.9229 4.55564C13.2826 5.19574 12.8221 5.99315 12.5878 6.86766C12.3535 7.74218 12.3536 8.66298 12.588 9.53746C12.8225 10.4119 13.2831 11.2093 13.9235 11.8493C14.5638 12.4893 15.3615 12.9494 16.2361 13.1833L11.4949 17.9245C11.3338 18.0856 11.2433 18.3042 11.2433 18.5321C11.2433 18.7599 11.3338 18.9785 11.4949 19.1396L16.2378 23.8885C15.1966 24.1682 14.2693 24.7672 13.5863 25.6013C12.9032 26.4354 12.4988 27.4626 12.4298 28.5384C12.3609 29.6143 12.6309 30.6847 13.2018 31.5992C13.7728 32.5136 14.6161 33.2261 15.613 33.6364L13.6064 39.4243C13.3398 40.0249 13.2145 40.6786 13.2402 41.3351C13.2658 41.9917 13.4416 42.6336 13.7542 43.2116L16.7706 50.3444C16.7818 50.3718 16.7947 50.3985 16.8093 50.4243C17.0205 50.8115 17.1308 51.2457 17.1298 51.6867V52.5117C17.1298 52.7397 17.2204 52.9582 17.3815 53.1194C17.5427 53.2806 17.7613 53.3711 17.9892 53.3711C18.2171 53.3711 18.4357 53.2806 18.5969 53.1194C18.758 52.9582 18.8486 52.7397 18.8486 52.5117V51.6867C18.8477 50.9718 18.6706 50.2682 18.3329 49.638L15.3157 42.5052C15.3037 42.4757 15.2899 42.447 15.2744 42.4192C15.0775 42.0598 14.968 41.6589 14.9548 41.2492C14.9417 40.8395 15.0253 40.4325 15.1988 40.0611L17.3008 34.0111C17.3911 34.0111 17.4796 34.024 17.5707 34.024C18.7049 34.025 19.8077 33.6513 20.7077 32.961C21.6076 32.2707 22.2543 31.3024 22.5473 30.2067L24.0048 31.6581V40.4805C24.0048 40.7084 24.0954 40.927 24.2565 41.0882C24.4177 41.2493 24.6363 41.3399 24.8642 41.3399C25.0921 41.3399 25.3107 41.2493 25.4719 41.0882C25.633 40.927 25.7236 40.7084 25.7236 40.4805V28.4492C25.7236 27.7655 25.9952 27.1097 26.4787 26.6262C26.9622 26.1427 27.6179 25.8711 28.3017 25.8711C28.9855 25.8711 29.6412 26.1427 30.1247 26.6262C30.6082 27.1097 30.8798 27.7655 30.8798 28.4492V38.8571C30.8813 40.0577 31.1608 41.2416 31.6962 42.3161L32.0108 42.9469C32.4266 43.7826 32.643 44.7033 32.643 45.6367C32.643 46.5702 32.4266 47.4909 32.0108 48.3266L31.1514 50.0453C30.973 50.4036 30.88 50.7984 30.8798 51.1986V52.5117C30.8798 52.7397 30.9704 52.9582 31.1315 53.1194C31.2927 53.2806 31.5113 53.3711 31.7392 53.3711C31.9671 53.3711 32.1857 53.2806 32.3469 53.1194C32.508 52.9582 32.5986 52.7397 32.5986 52.5117V51.1986C32.5977 51.0657 32.6271 50.9343 32.6845 50.8145L33.5439 49.0957C34.0784 48.0212 34.3566 46.8373 34.3566 45.6372C34.3566 44.437 34.0784 43.2532 33.5439 42.1786L33.2294 41.5478C32.9212 40.929 32.7216 40.2619 32.639 39.5756C33.1971 40.1357 33.8605 40.58 34.591 40.8828C35.3215 41.1856 36.1047 41.3409 36.8954 41.3399C37.5792 41.3399 38.235 41.0682 38.7185 40.5848C39.2019 40.1013 39.4736 39.4455 39.4736 38.7617V33.8633C40.5827 33.5889 41.5692 32.9534 42.2777 32.057C42.9862 31.1605 43.3765 30.0539 43.3872 28.9114C43.3979 27.7688 43.0285 26.6551 42.3369 25.7455C41.6454 24.8359 40.6711 24.182 39.5672 23.8868L44.3093 19.1379C44.4699 18.9768 44.56 18.7586 44.56 18.5312C44.56 18.3037 44.4699 18.0856 44.3093 17.9245ZM36.8954 39.6211C35.7563 39.6198 34.6641 39.1666 33.8586 38.3611C33.0531 37.5556 32.5999 36.4634 32.5986 35.3242V30.8555L33.2551 30.1989C33.526 31.2166 34.1027 32.1266 34.9075 32.806C35.7122 33.4853 36.7061 33.9011 37.7548 33.9974V38.7617C37.7548 38.9897 37.6643 39.2082 37.5031 39.3694C37.342 39.5306 37.1234 39.6211 36.8954 39.6211ZM37.0183 24.0089C36.8894 24.1363 36.804 24.3014 36.7746 24.4803C36.7451 24.6592 36.773 24.8429 36.8542 25.005C36.9355 25.1672 37.0659 25.2994 37.2269 25.3829C37.3879 25.4664 37.5712 25.4968 37.7505 25.4698C38.4645 25.3687 39.1922 25.4948 39.8306 25.8301C40.469 26.1653 40.9858 26.6929 41.3078 27.3381C41.6299 27.9832 41.7409 28.7134 41.6252 29.4251C41.5094 30.1368 41.1728 30.7942 40.6629 31.304C40.153 31.8139 39.4957 32.1506 38.784 32.2663C38.0722 32.382 37.3421 32.271 36.6969 31.949C36.0518 31.6269 35.5242 31.1101 35.1889 30.4717C34.8536 29.8333 34.7276 29.1056 34.8287 28.3917C34.8557 28.2123 34.8253 28.0291 34.7418 27.8681C34.6583 27.7071 34.526 27.5766 34.3639 27.4954C34.2018 27.4141 34.0181 27.3862 33.8392 27.4157C33.6602 27.4452 33.4952 27.5305 33.3677 27.6595L32.5986 28.4303C32.5973 27.8661 32.485 27.3076 32.2679 26.7867C32.0508 26.2659 31.7332 25.7929 31.3334 25.3948C30.9335 24.9966 30.4591 24.6812 29.9373 24.4664C29.4155 24.2516 28.8565 24.1417 28.2922 24.1429C27.728 24.1442 27.1695 24.2565 26.6486 24.4736C26.1278 24.6907 25.6548 25.0082 25.2567 25.4081C24.4526 26.2157 24.0023 27.3096 24.0048 28.4492V29.2278L22.4296 27.6526C22.3021 27.5236 22.1371 27.4383 21.9581 27.4088C21.7792 27.3793 21.5955 27.4072 21.4334 27.4885C21.2713 27.5697 21.139 27.7002 21.0555 27.8612C20.972 28.0222 20.9416 28.2055 20.9686 28.3848C21.0697 29.0988 20.9437 29.8264 20.6084 30.4648C20.2731 31.1032 19.7455 31.62 19.1004 31.9421C18.4552 32.2641 17.7251 32.3752 17.0133 32.2594C16.3016 32.1437 15.6443 31.8071 15.1344 31.2972C14.6245 30.7873 14.2879 30.13 14.1721 29.4182C14.0564 28.7065 14.1674 27.9764 14.4895 27.3312C14.8115 26.686 15.3283 26.1585 15.9667 25.8232C16.6051 25.4879 17.3328 25.3619 18.0468 25.4629C18.2262 25.4902 18.4096 25.4599 18.5708 25.3765C18.7319 25.2931 18.8625 25.1609 18.9439 24.9987C19.0253 24.8365 19.0532 24.6527 19.0238 24.4737C18.9943 24.2946 18.9089 24.1295 18.7798 24.002L13.3168 18.5321L18.7858 13.0664C18.9148 12.9389 19.0001 12.7739 19.0296 12.595C19.0591 12.416 19.0312 12.2324 18.95 12.0702C18.8687 11.9081 18.7382 11.7758 18.5772 11.6924C18.4163 11.6089 18.233 11.5785 18.0537 11.6055C17.3406 11.7051 16.6143 11.5784 15.9771 11.2431C15.34 10.9079 14.8242 10.381 14.5025 9.73692C14.1809 9.09282 14.0695 8.36396 14.1843 7.6532C14.299 6.94244 14.6341 6.28565 15.1421 5.77549C15.7973 5.15133 16.6675 4.80317 17.5724 4.80317C18.4773 4.80317 19.3475 5.15133 20.0027 5.77549C20.3788 6.15255 20.6621 6.61182 20.8303 7.1171C20.9986 7.62237 21.0471 8.15982 20.9721 8.68705C20.9451 8.86638 20.9755 9.04965 21.059 9.21065C21.1424 9.37164 21.2747 9.5021 21.4368 9.58336C21.599 9.66461 21.7826 9.6925 21.9616 9.66302C22.1405 9.63354 22.3055 9.54821 22.433 9.41924L27.9064 3.9519L31.7572 7.80361C31.0129 8.15912 30.3647 8.68802 29.867 9.34592C29.3694 10.0038 29.0369 10.7715 28.8974 11.5845C28.7579 12.3975 28.8155 13.2322 29.0654 14.0183C29.3153 14.8045 29.7501 15.5192 30.3334 16.1025C30.9167 16.6858 31.6314 17.1206 32.4175 17.3705C33.2037 17.6203 34.0383 17.6779 34.8513 17.5384C35.6644 17.399 36.432 17.0664 37.0899 16.5688C37.7478 16.0712 38.2767 15.423 38.6322 14.6786L42.484 18.5295L37.0183 24.0089Z" fill="white"/>
<path d="M53.2236 19.8555H48.0673C47.8394 19.8555 47.6208 19.7649 47.4597 19.6038C47.2985 19.4426 47.2079 19.224 47.2079 18.9961C47.2079 18.7682 47.2985 18.5496 47.4597 18.3884C47.6208 18.2273 47.8394 18.1367 48.0673 18.1367H53.2236C53.4515 18.1367 53.6701 18.2273 53.8312 18.3884C53.9924 18.5496 54.0829 18.7682 54.0829 18.9961C54.0829 19.224 53.9924 19.4426 53.8312 19.6038C53.6701 19.7649 53.4515 19.8555 53.2236 19.8555Z" fill="white"/>
<path d="M47.1383 9.9728C46.9492 9.97279 46.7653 9.91036 46.6152 9.7952C46.4651 9.68004 46.3572 9.51857 46.3083 9.33585C46.2593 9.15312 46.272 8.95935 46.3444 8.78458C46.4168 8.6098 46.5448 8.4638 46.7086 8.3692L51.1774 5.79108C51.3747 5.67892 51.6083 5.64934 51.8273 5.7088C52.0463 5.76825 52.2329 5.91192 52.3464 6.10845C52.4598 6.30498 52.491 6.53841 52.433 6.75781C52.375 6.9772 52.2325 7.16475 52.0368 7.27952L47.568 9.85764C47.4375 9.93338 47.2892 9.97312 47.1383 9.9728Z" fill="white"/>
<path d="M51.6028 32.3162C51.4519 32.3166 51.3036 32.2768 51.1731 32.2011L46.7044 29.623C46.6058 29.5669 46.5194 29.492 46.4499 29.4024C46.3805 29.3128 46.3295 29.2104 46.2998 29.1011C46.2701 28.9917 46.2623 28.8775 46.2769 28.7651C46.2915 28.6527 46.3282 28.5443 46.3849 28.4462C46.4416 28.348 46.5171 28.2621 46.6071 28.1932C46.6971 28.1244 46.7999 28.074 46.9095 28.0451C47.019 28.0161 47.1333 28.0091 47.2455 28.0244C47.3578 28.0398 47.466 28.0772 47.5637 28.1345L52.0325 30.7126C52.1963 30.8072 52.3244 30.9532 52.3967 31.128C52.4691 31.3028 52.4818 31.4966 52.4329 31.6793C52.3839 31.862 52.276 32.0235 52.1259 32.1386C51.9759 32.2538 51.792 32.3162 51.6028 32.3162Z" fill="white"/>
<path d="M8.53607 19.8555H3.37982C3.1519 19.8555 2.93332 19.7649 2.77215 19.6038C2.61099 19.4426 2.52045 19.224 2.52045 18.9961C2.52045 18.7682 2.61099 18.5496 2.77215 18.3884C2.93332 18.2273 3.1519 18.1367 3.37982 18.1367H8.53607C8.76399 18.1367 8.98258 18.2273 9.14374 18.3884C9.30491 18.5496 9.39545 18.7682 9.39545 18.9961C9.39545 19.224 9.30491 19.4426 9.14374 19.6038C8.98258 19.7649 8.76399 19.8555 8.53607 19.8555Z" fill="white"/>
<path d="M9.46507 9.9728C9.31417 9.97312 9.1659 9.93338 9.03538 9.85764L4.56663 7.27952C4.37086 7.16475 4.22843 6.9772 4.17043 6.75781C4.11242 6.53841 4.14355 6.30498 4.25702 6.10845C4.37049 5.91192 4.55708 5.76825 4.77609 5.7088C4.99509 5.64934 5.22873 5.67892 5.426 5.79108L9.89476 8.3692C10.0586 8.4638 10.1866 8.6098 10.259 8.78458C10.3314 8.95935 10.3441 9.15312 10.2951 9.33585C10.2462 9.51857 10.1383 9.68004 9.9882 9.7952C9.83812 9.91036 9.65424 9.97279 9.46507 9.9728Z" fill="white"/>
<path d="M5.0006 32.3162C4.81143 32.3162 4.62755 32.2538 4.47747 32.1386C4.3274 32.0235 4.21951 31.862 4.17055 31.6793C4.12159 31.4966 4.13429 31.3028 4.20667 31.128C4.27906 30.9532 4.40709 30.8072 4.57092 30.7126L9.03967 28.1345C9.13744 28.0772 9.24558 28.0398 9.35787 28.0244C9.47016 28.0091 9.58438 28.0161 9.69395 28.0451C9.80352 28.074 9.90628 28.1244 9.9963 28.1932C10.0863 28.2621 10.1619 28.348 10.2185 28.4462C10.2752 28.5443 10.3119 28.6527 10.3265 28.7651C10.3411 28.8775 10.3333 28.9917 10.3036 29.1011C10.2739 29.2104 10.2229 29.3128 10.1535 29.4024C10.084 29.492 9.99756 29.5669 9.89904 29.623L5.43029 32.2011C5.29978 32.2768 5.1515 32.3166 5.0006 32.3162Z" fill="white"/>
</svg>
