<svg width="133" height="80" viewBox="0 0 133 80" fill="none" xmlns="http://www.w3.org/2000/svg">
<path fill-rule="evenodd" clip-rule="evenodd" d="M129.813 0.223633L130.461 2.54549C130.557 2.88827 130.462 3.23922 130.24 3.48522C130.557 3.58061 130.821 3.83156 130.916 4.17433L131.371 5.80316C131.467 6.14594 131.372 6.49689 131.15 6.74289C131.467 6.83828 131.73 7.08923 131.826 7.432L132.281 9.06083C132.377 9.4036 132.282 9.75456 132.06 10.0006C132.377 10.096 132.64 10.3469 132.736 10.6897L132.963 11.5041C133.112 12.036 132.801 12.5877 132.269 12.7362C131.737 12.8847 131.185 12.574 131.037 12.042L130.809 11.2276C130.714 10.8848 130.809 10.5339 131.031 10.2879C130.713 10.1925 130.45 9.94154 130.355 9.59876L129.9 7.96993C129.804 7.62716 129.899 7.27621 130.121 7.0302C129.804 6.93481 129.541 6.68386 129.445 6.34109L129.345 5.98202C129.241 6.39327 129.136 6.80243 129.03 7.20951C128.897 7.72043 128.392 8.03584 127.881 7.94115C128.372 8.11381 128.652 8.63889 128.513 9.14811C128.334 9.8018 128.152 10.45 127.967 11.0927C127.814 11.6234 127.26 11.9298 126.729 11.7771C126.198 11.6243 125.892 11.0702 126.045 10.5395C126.227 9.9052 126.407 9.2654 126.584 8.62004C126.722 8.11501 127.224 7.8069 127.729 7.90053C127.244 7.72968 126.963 7.21253 127.095 6.70579C127.262 6.06232 127.427 5.41347 127.588 4.75919C127.59 4.75271 127.592 4.74626 127.593 4.73984C127.574 4.75958 127.553 4.77868 127.532 4.79705L125.94 6.15442C125.519 6.51274 124.888 6.46253 124.53 6.04226C124.172 5.622 124.222 4.99083 124.642 4.63251L126.234 3.27514C126.654 2.91681 127.285 2.96703 127.644 3.38729C127.865 3.6473 127.931 3.98804 127.849 4.29495C128.088 4.05373 128.445 3.94074 128.799 4.0282C128.874 4.04676 128.945 4.07335 129.011 4.10684C129.023 4.07317 129.037 4.04021 129.053 4.00809C128.973 4.00921 128.892 4.00068 128.81 3.98164C128.595 3.93132 128.413 3.81516 128.279 3.65948C128.066 3.61719 127.866 3.50556 127.714 3.32753C127.356 2.90726 127.406 2.27609 127.826 1.91777L129.813 0.223633ZM124.46 6.10203C124.818 6.5223 124.768 7.15347 124.348 7.51179L123.552 8.19047C123.131 8.5488 122.5 8.49858 122.142 8.07832C121.784 7.65805 121.834 7.02688 122.254 6.66856L123.05 5.98987C123.47 5.63155 124.101 5.68176 124.46 6.10203ZM126.715 11.8249C127.244 11.985 127.542 12.5432 127.382 13.0718C127.184 13.7257 126.983 14.3737 126.779 15.0159C126.619 15.5196 126.097 15.8078 125.591 15.6849C126.072 15.8836 126.324 16.424 126.157 16.9254C125.942 17.571 125.723 18.2105 125.501 18.8441C125.319 19.3654 124.748 19.64 124.227 19.4575C123.706 19.275 123.431 18.7045 123.613 18.1833C123.832 17.559 124.048 16.9287 124.26 16.2923C124.426 15.7955 124.943 15.5154 125.443 15.6367C124.968 15.4404 124.714 14.9089 124.873 14.4098C125.075 13.7765 125.273 13.1373 125.468 12.4923C125.628 11.9637 126.187 11.6649 126.715 11.8249ZM124.212 19.5004C124.73 19.6909 124.996 20.2656 124.805 20.784C124.57 21.4243 124.331 22.0583 124.089 22.686C123.903 23.17 123.381 23.426 122.892 23.2909C123.342 23.5264 123.548 24.0697 123.354 24.5507C123.096 25.1891 122.835 25.8209 122.571 26.4461C122.355 26.9547 121.769 27.1926 121.26 26.9773C120.751 26.7621 120.513 26.1753 120.729 25.6667C120.989 25.0518 121.246 24.4303 121.499 23.8021C121.691 23.3262 122.208 23.0787 122.691 23.2119C122.247 22.9795 122.039 22.4458 122.223 21.967C122.461 21.349 122.696 20.7247 122.928 20.0941C123.118 19.5757 123.693 19.3099 124.212 19.5004ZM121.246 27.0094C121.751 27.2334 121.979 27.8242 121.755 28.329C121.479 28.9499 121.201 29.564 120.918 30.1714C120.694 30.6543 120.133 30.8737 119.644 30.6803C120.103 30.9374 120.287 31.5108 120.054 31.9896C119.75 32.6136 119.443 33.2303 119.132 33.8397C118.881 34.3317 118.279 34.5272 117.787 34.2762C117.295 34.0253 117.1 33.4231 117.351 32.9311C117.656 32.3329 117.957 31.7275 118.255 31.1147C118.486 30.6414 119.04 30.4314 119.521 30.6218C119.07 30.3686 118.883 29.8061 119.104 29.3287C119.382 28.7319 119.656 28.1284 119.927 27.518C120.15 27.0132 120.741 26.7855 121.246 27.0094ZM117.778 34.2931C118.266 34.5533 118.449 35.1592 118.189 35.6463C117.871 36.2413 117.55 36.8291 117.225 37.4098C116.955 37.8918 116.346 38.064 115.864 37.7944C115.382 37.5248 115.21 36.9155 115.48 36.4335C115.798 35.8641 116.113 35.2876 116.425 34.7039C116.685 34.2167 117.291 34.0328 117.778 34.2931ZM115.845 37.828C116.321 38.1073 116.481 38.72 116.202 39.1964C115.854 39.7894 115.503 40.3745 115.148 40.9521C114.862 41.4166 114.259 41.5658 113.79 41.2914C114.241 41.5946 114.367 42.2035 114.072 42.6619C113.7 43.2392 113.325 43.8085 112.946 44.3699C112.637 44.8277 112.015 44.9482 111.558 44.6391C111.1 44.3301 110.979 43.7085 111.288 43.2508C111.659 42.7015 112.027 42.1443 112.391 41.5791C112.682 41.1268 113.277 40.9879 113.736 41.2574C113.294 40.9595 113.162 40.3632 113.444 39.9049C113.792 39.3392 114.136 38.7658 114.477 38.1848C114.756 37.7084 115.369 37.5486 115.845 37.828ZM111.54 44.6646C111.991 44.9838 112.097 45.6079 111.778 46.0586C111.385 46.6133 110.989 47.16 110.589 47.6987C110.259 48.1421 109.633 48.2346 109.19 47.9053C108.746 47.576 108.654 46.9496 108.983 46.5062C109.374 45.9797 109.762 45.4452 110.146 44.9026C110.465 44.4519 111.089 44.3453 111.54 44.6646ZM109.178 47.9209C109.613 48.2604 109.691 48.8888 109.352 49.3243C108.928 49.8679 108.501 50.4029 108.07 50.9295C107.72 51.3568 107.09 51.4197 106.662 51.0698C106.235 50.72 106.172 50.09 106.522 49.6626C106.943 49.1484 107.36 48.6259 107.774 48.0948C108.114 47.6592 108.742 47.5813 109.178 47.9209ZM106.659 51.0736C107.078 51.4337 107.126 52.065 106.766 52.4838C106.318 53.0042 105.867 53.5158 105.413 54.0189C105.043 54.4286 104.41 54.4607 104.001 54.0905C103.591 53.7202 103.559 53.0878 103.929 52.6781C104.372 52.1873 104.812 51.688 105.249 51.1801C105.609 50.7613 106.24 50.7136 106.659 51.0736ZM103.982 54.1106C104.382 54.4911 104.398 55.1241 104.018 55.5244C103.549 56.0174 103.077 56.5017 102.602 56.9773C102.211 57.3679 101.578 57.368 101.188 56.9776C100.797 56.5871 100.797 55.9539 101.187 55.5634C101.651 55.0997 102.111 54.6275 102.568 54.1466C102.949 53.7463 103.582 53.7302 103.982 54.1106ZM101.168 56.9965C101.549 57.397 101.532 58.0299 101.132 58.4103C100.634 58.8831 100.133 59.3467 99.6281 59.8014C99.2178 60.1711 98.5855 60.1382 98.2158 59.7279C97.8461 59.3176 97.879 58.6853 98.2893 58.3156C98.781 57.8726 99.2694 57.4208 99.7546 56.9601C100.155 56.5797 100.788 56.5961 101.168 56.9965ZM98.215 59.7287C98.5738 60.1486 98.5243 60.7798 98.1045 61.1386C97.5796 61.5872 97.0514 62.0265 96.5199 62.4565C96.0906 62.8039 95.4609 62.7375 95.1135 62.3082C94.7661 61.8788 94.8325 61.2492 95.2618 60.9018C95.7794 60.483 96.2938 60.0552 96.8051 59.6183C97.2249 59.2594 97.8561 59.3089 98.215 59.7287ZM95.1003 62.3186C95.4361 62.7571 95.3528 63.3847 94.9143 63.7205C94.3724 64.1354 93.8275 64.541 93.2796 64.9376C92.8322 65.2614 92.207 65.1612 91.8832 64.7139C91.5593 64.2665 91.6595 63.6413 92.1069 63.3175C92.6403 62.9314 93.1708 62.5364 93.6984 62.1325C94.1369 61.7968 94.7646 61.8801 95.1003 62.3186ZM91.86 64.7301C92.1715 65.1862 92.0544 65.8084 91.5983 66.1199C91.035 66.5047 90.4687 66.8803 89.8998 67.2467C89.4354 67.5458 88.8166 67.4118 88.5176 66.9475C88.2185 66.4831 88.3525 65.8643 88.8168 65.5653C89.3707 65.2086 89.9218 64.843 90.4702 64.4684C90.9263 64.1569 91.5485 64.2741 91.86 64.7301ZM88.499 66.9591C88.7853 67.4314 88.6345 68.0463 88.1622 68.3326C87.5763 68.6878 86.9877 69.0337 86.3966 69.3703C85.9167 69.6437 85.3061 69.4763 85.0327 68.9964C84.7593 68.5165 84.9268 67.9059 85.4067 67.6325C85.9821 67.3047 86.5551 66.968 87.1255 66.6223C87.5978 66.336 88.2127 66.4868 88.499 66.9591ZM85.0243 69.001C85.2846 69.4881 85.1008 70.094 84.6137 70.3543C84.0077 70.6782 83.3993 70.9928 82.7887 71.2982C82.2948 71.5452 81.6941 71.3451 81.447 70.8512C81.2 70.3572 81.4001 69.7565 81.894 69.5095C82.4886 69.2121 83.081 68.9058 83.671 68.5905C84.158 68.3301 84.7639 68.5139 85.0243 69.001ZM0.0788662 70.0215C0.293822 69.5128 0.88049 69.2747 1.38923 69.4896C1.68772 69.6157 1.98929 69.7413 2.29386 69.8662C2.80485 70.0757 3.04922 70.6598 2.83969 71.1708C2.63015 71.6818 2.04604 71.9262 1.53505 71.7166C1.22397 71.5891 0.915868 71.4608 0.610803 71.3319C0.102067 71.117 -0.136089 70.5303 0.0788662 70.0215ZM81.4333 70.8578C81.6671 71.3582 81.451 71.9533 80.9506 72.1871C80.331 72.4766 79.7094 72.757 79.086 73.0284C78.5796 73.2488 77.9904 73.017 77.7699 72.5106C77.5495 72.0043 77.7813 71.4151 78.2877 71.1946C78.8951 70.9302 79.5005 70.6571 80.104 70.3752C80.6043 70.1414 81.1995 70.3575 81.4333 70.8578ZM2.86382 71.1802C3.06264 70.665 3.64151 70.4084 4.15677 70.6073C4.7677 70.843 5.38933 71.0759 6.02121 71.3054C6.5403 71.494 6.80824 72.0677 6.61966 72.5868C6.43109 73.1059 5.85741 73.3738 5.33832 73.1852C4.69411 72.9512 4.06011 72.7137 3.43677 72.4732C2.92151 72.2743 2.66499 71.6955 2.86382 71.1802ZM77.7504 72.5188C77.9575 73.0308 77.7102 73.6137 77.1982 73.8208C76.5668 74.0761 75.9337 74.3225 75.2991 74.5602C74.7819 74.754 74.2056 74.4917 74.0119 73.9745C73.8181 73.4573 74.0804 72.881 74.5976 72.6873C75.2161 72.4556 75.8332 72.2154 76.4484 71.9666C76.9604 71.7596 77.5434 72.0068 77.7504 72.5188ZM6.6513 72.5978C6.82981 72.0751 7.39821 71.7962 7.92085 71.9747C8.54091 72.1865 9.16981 72.3949 9.80717 72.5995C10.333 72.7683 10.6225 73.3315 10.4536 73.8573C10.2848 74.3832 9.72167 74.6726 9.19582 74.5038C8.54675 74.2954 7.90614 74.0831 7.27439 73.8673C6.75175 73.6888 6.47278 73.1204 6.6513 72.5978ZM10.487 73.8676C10.6462 73.3388 11.2039 73.0391 11.7328 73.1982C12.3614 73.3874 12.9974 73.5727 13.6405 73.7539C14.1721 73.9036 14.4817 74.4559 14.3319 74.9875C14.1822 75.5191 13.6298 75.8287 13.0982 75.6789C12.4437 75.4946 11.7963 75.306 11.1565 75.1134C10.6276 74.9542 10.3279 74.3965 10.487 73.8676ZM73.988 73.983C74.1684 74.5051 73.8914 75.0744 73.3694 75.2548C72.7248 75.4775 72.0788 75.6914 71.4316 75.8969C70.9052 76.0639 70.3431 75.7727 70.176 75.2463C70.0089 74.7199 70.3002 74.1577 70.8266 73.9906C71.4578 73.7902 72.0878 73.5816 72.7163 73.3644C73.2383 73.1841 73.8077 73.461 73.988 73.983ZM14.3638 74.9962C14.5041 74.462 15.0508 74.1427 15.585 74.283C16.2216 74.4502 16.8646 74.6131 17.5135 74.7715C18.05 74.9025 18.3788 75.4436 18.2478 75.9802C18.1168 76.5167 17.5757 76.8455 17.0392 76.7145C16.3789 76.5533 15.7248 76.3875 15.077 76.2174C14.5428 76.0771 14.2235 75.5304 14.3638 74.9962ZM70.1569 75.252C70.3108 75.7824 70.0056 76.3371 69.4752 76.491C68.8193 76.6813 68.1624 76.8631 67.5047 77.0365C66.9707 77.1773 66.4236 76.8586 66.2828 76.3245C66.142 75.7905 66.4608 75.2434 66.9948 75.1026C67.6368 74.9333 68.2779 74.756 68.9179 74.5703C69.4483 74.4164 70.003 74.7216 70.1569 75.252ZM18.2765 75.9869C18.3981 75.4482 18.9334 75.11 19.4721 75.2316C20.1162 75.377 20.7656 75.5177 21.4202 75.6536C21.961 75.7659 22.3083 76.2952 22.1961 76.836C22.0838 77.3767 21.5544 77.7241 21.0137 77.6118C20.3478 77.4736 19.6871 77.3304 19.0318 77.1825C18.4931 77.0609 18.1549 76.5256 18.2765 75.9869ZM66.2681 76.3282C66.396 76.8654 66.0642 77.4047 65.5269 77.5326C64.8618 77.6909 64.1961 77.8409 63.5301 77.9828C62.9899 78.0978 62.4588 77.7532 62.3437 77.2131C62.2286 76.6729 62.5732 76.1417 63.1134 76.0267C63.7641 75.888 64.4143 75.7415 65.0637 75.5869C65.601 75.459 66.1402 75.7909 66.2681 76.3282ZM22.2209 76.8409C22.3237 76.2983 22.847 75.9418 23.3896 76.0446C24.0404 76.1679 24.6958 76.2863 25.3555 76.3995C25.8998 76.4929 26.2654 77.0098 26.172 77.5542C26.0786 78.0985 25.5617 78.4641 25.0173 78.3707C24.3461 78.2555 23.6793 78.1351 23.0172 78.0096C22.4746 77.9068 22.118 77.3836 22.2209 76.8409ZM62.3281 77.2161C62.4306 77.7588 62.0737 78.2818 61.531 78.3843C60.8601 78.5109 60.189 78.6296 59.5179 78.7404C58.973 78.8304 58.4583 78.4616 58.3684 77.9167C58.2784 77.3717 58.6472 76.8571 59.1921 76.7671C59.8482 76.6588 60.5043 76.5428 61.16 76.419C61.7027 76.3165 62.2257 76.6734 62.3281 77.2161ZM26.1929 77.5576C26.2767 77.0117 26.7872 76.6371 27.3331 76.721C27.9898 76.8218 28.6503 76.9173 29.3145 77.0074C29.8618 77.0815 30.2453 77.5853 30.1712 78.1326C30.097 78.6799 29.5932 79.0634 29.0459 78.9892C28.3699 78.8976 27.6977 78.8004 27.0295 78.6978C26.4837 78.614 26.1091 78.1035 26.1929 77.5576ZM58.3497 77.9194C58.4274 78.4662 58.0472 78.9725 57.5004 79.0502C56.826 79.146 56.1518 79.2342 55.4781 79.3148C54.9298 79.3804 54.432 78.9891 54.3664 78.4407C54.3008 77.8923 54.6921 77.3946 55.2405 77.3289C55.8997 77.2501 56.5593 77.1638 57.219 77.0701C57.7658 76.9924 58.272 77.3727 58.3497 77.9194ZM30.1884 78.1348C30.2528 77.5863 30.7497 77.1939 31.2982 77.2583C31.9598 77.336 32.6246 77.4081 33.2924 77.4743C33.842 77.5288 34.2433 78.0185 34.1888 78.5681C34.1343 79.1177 33.6446 79.5191 33.095 79.4645C32.4151 79.3971 31.7383 79.3237 31.065 79.2446C30.5164 79.1802 30.124 78.6833 30.1884 78.1348ZM54.3447 78.443C54.3984 78.9926 53.9964 79.4818 53.4467 79.5355C52.7702 79.6016 52.0943 79.6604 51.4193 79.7119C50.8686 79.754 50.3881 79.3417 50.346 78.791C50.3039 78.2403 50.7163 77.7598 51.2669 77.7177C51.928 77.6672 52.5898 77.6097 53.2522 77.545C53.8018 77.4913 54.291 77.8933 54.3447 78.443ZM34.203 78.5694C34.2475 78.019 34.7298 77.6088 35.2803 77.6533C35.9456 77.7071 36.6136 77.7549 37.284 77.7966C37.8352 77.8309 38.2543 78.3055 38.22 78.8567C38.1857 79.4079 37.7111 79.827 37.1599 79.7927C36.477 79.7503 35.7966 79.7015 35.1191 79.6468C34.5686 79.6023 34.1585 79.1199 34.203 78.5694ZM50.3216 78.7925C50.3521 79.344 49.9299 79.8158 49.3784 79.8463C48.699 79.884 48.0206 79.9145 47.3435 79.9381C46.7916 79.9574 46.3285 79.5256 46.3092 78.9736C46.29 78.4217 46.7218 77.9586 47.2737 77.9393C47.9373 77.9162 48.6021 77.8863 49.2678 77.8494C49.8193 77.8188 50.2911 78.2411 50.3216 78.7925ZM38.2316 78.8574C38.2556 78.3056 38.7223 77.8777 39.2741 77.9017C39.9396 77.9306 40.6074 77.9533 41.277 77.9696C41.8292 77.983 42.2659 78.4415 42.2524 78.9936C42.239 79.5457 41.7806 79.9824 41.2285 79.969C40.5459 79.9524 39.8655 79.9293 39.1873 79.8998C38.6355 79.8759 38.2076 79.4091 38.2316 78.8574ZM46.2884 78.9741C46.2966 79.5263 45.8555 79.9806 45.3033 79.9888C44.6219 79.9989 43.9421 80.0021 43.2641 79.9988C42.7118 79.9961 42.2663 79.5461 42.269 78.9939C42.2717 78.4416 42.7216 77.9961 43.2739 77.9988C43.9389 78.0021 44.6056 77.9989 45.2737 77.989C45.8259 77.9808 46.2802 78.4219 46.2884 78.9741Z" fill="#00A9E2"/>
</svg>
