<svg width="132" height="60" viewBox="0 0 132 60" fill="none" xmlns="http://www.w3.org/2000/svg">
<path fill-rule="evenodd" clip-rule="evenodd" d="M85.6717 2.93673C85.001 2.92091 84.3331 2.91478 83.6681 2.91812C83.1158 2.92089 82.6659 2.47543 82.6631 1.92315C82.6603 1.37087 83.1058 0.920917 83.6581 0.918144C84.3421 0.914709 85.029 0.921015 85.7189 0.937282C86.271 0.950301 86.7081 1.40845 86.695 1.96058C86.682 2.51271 86.2239 2.94975 85.6717 2.93673ZM82.6477 1.92344C82.6662 2.47542 82.2337 2.93786 81.6817 2.95633C81.0143 2.97867 80.35 3.01049 79.6886 3.05158C79.1374 3.08583 78.6627 2.66673 78.6285 2.11551C78.5942 1.56429 79.0133 1.08968 79.5646 1.05543C80.2449 1.01317 80.9283 0.980431 81.6148 0.957453C82.1668 0.938977 82.6292 1.37146 82.6477 1.92344ZM86.706 1.96102C86.7346 1.40947 87.2048 0.985506 87.7564 1.01406C88.4359 1.04925 89.1182 1.09415 89.8031 1.14896C90.3537 1.19302 90.7642 1.67502 90.7202 2.22555C90.6761 2.77607 90.1941 3.18664 89.6436 3.14259C88.9774 3.08927 88.3138 3.0456 87.653 3.01139C87.1014 2.98283 86.6775 2.51256 86.706 1.96102ZM78.6052 2.1173C78.6552 2.66732 78.2498 3.1537 77.6998 3.20366C77.0381 3.26376 76.3796 3.33307 75.7241 3.41138C75.1757 3.4769 74.6781 3.08546 74.6125 2.53707C74.547 1.98869 74.9385 1.49102 75.4868 1.42551C76.161 1.34497 76.8383 1.27367 77.5189 1.21186C78.0689 1.1619 78.5553 1.56728 78.6052 2.1173ZM90.7483 2.22824C90.8077 1.67916 91.301 1.28222 91.8501 1.34164C92.5217 1.41432 93.1958 1.49658 93.8723 1.58861C94.4195 1.66305 94.8028 2.16702 94.7284 2.71427C94.654 3.26151 94.15 3.6448 93.6027 3.57036C92.9443 3.48079 92.2883 3.40075 91.6349 3.33003C91.0858 3.27061 90.6889 2.77732 90.7483 2.22824ZM74.5844 2.54087C74.6655 3.08718 74.2883 3.59574 73.742 3.67679C73.0845 3.77432 72.4302 3.88085 71.7792 3.99614C71.2354 4.09244 70.7164 3.72966 70.6201 3.18584C70.5238 2.64201 70.8866 2.12309 71.4304 2.02678C72.0997 1.90826 72.7724 1.79873 73.4485 1.69844C73.9948 1.61739 74.5034 1.99456 74.5844 2.54087ZM94.7605 2.71915C94.8499 2.17414 95.3641 1.80478 95.9091 1.89415C96.5769 2.00365 97.247 2.12271 97.9193 2.25149C98.4617 2.35539 98.8172 2.87934 98.7133 3.42176C98.6094 3.96419 98.0855 4.31968 97.5431 4.21579C96.8882 4.09035 96.2356 3.97441 95.5855 3.86779C95.0405 3.77842 94.6711 3.26415 94.7605 2.71915ZM70.5957 3.19057C70.7071 3.7315 70.3589 4.26033 69.818 4.37175C69.1655 4.50613 68.5165 4.64924 67.8708 4.80085C67.3332 4.9271 66.795 4.59359 66.6687 4.05593C66.5425 3.51827 66.876 2.98006 67.4137 2.85381C68.077 2.69804 68.744 2.55098 69.4145 2.41287C69.9554 2.30145 70.4842 2.64964 70.5957 3.19057ZM98.7294 3.42514C98.8475 2.88563 99.3806 2.54404 99.9201 2.66216C100.589 2.80867 101.261 2.96485 101.934 3.13087C102.47 3.26306 102.798 3.80492 102.666 4.34116C102.533 4.87739 101.992 5.20493 101.455 5.07274C100.799 4.91088 100.144 4.75865 99.4924 4.61588C98.9529 4.49776 98.6113 3.96464 98.7294 3.42514ZM66.6496 4.06076C66.7904 4.5948 66.4716 5.14186 65.9376 5.28266C65.2926 5.45272 64.6511 5.63119 64.0131 5.81783C63.4831 5.9729 62.9277 5.66891 62.7726 5.13884C62.6175 4.60878 62.9215 4.05336 63.4516 3.89829C64.1065 3.70668 64.7652 3.52341 65.4277 3.34875C65.9617 3.20795 66.5088 3.52673 66.6496 4.06076ZM102.667 4.34164C102.813 3.8089 103.363 3.49508 103.895 3.64071C104.549 3.81943 105.205 4.00747 105.863 4.20496C106.392 4.36379 106.692 4.92134 106.533 5.4503C106.374 5.97925 105.817 6.2793 105.288 6.12048C104.646 5.92773 104.006 5.74427 103.368 5.56993C102.835 5.4243 102.522 4.87438 102.667 4.34164ZM62.7561 5.14399C62.925 5.66979 62.6358 6.23301 62.11 6.40199C61.4744 6.60623 60.8425 6.81851 60.2142 7.03858C59.693 7.22116 59.1224 6.94662 58.9399 6.42539C58.7573 5.90416 59.0318 5.33361 59.5531 5.15103C60.1975 4.92529 60.8458 4.70749 61.4981 4.49789C62.0239 4.32892 62.5871 4.61819 62.7561 5.14399ZM106.573 5.463C106.745 4.9381 107.31 4.65183 107.835 4.8236C108.47 5.03168 109.108 5.24863 109.747 5.47459C110.268 5.65861 110.541 6.22993 110.357 6.75065C110.173 7.27137 109.602 7.54432 109.081 7.36029C108.456 7.13952 107.833 6.9276 107.213 6.72441C106.688 6.55265 106.401 5.98789 106.573 5.463ZM58.9209 6.43241C59.1166 6.94882 58.8567 7.52618 58.3403 7.72196C57.717 7.95829 57.0974 8.2022 56.4816 8.45344C55.9702 8.66208 55.3866 8.41667 55.1779 7.90531C54.9693 7.39395 55.2147 6.81028 55.7261 6.60164C56.3571 6.34417 56.9922 6.09415 57.6313 5.85185C58.1477 5.65607 58.7251 5.91599 58.9209 6.43241ZM110.381 6.75947C110.577 6.24316 111.154 5.98354 111.671 6.1796C112.309 6.42209 112.95 6.67359 113.591 6.93424C114.087 7.13547 114.334 7.68892 114.16 8.18846C114.394 7.71425 114.962 7.50176 115.453 7.71369C116.075 7.98208 116.698 8.25909 117.323 8.54481C117.825 8.77446 118.046 9.3678 117.817 9.87008C117.587 10.3724 116.994 10.5934 116.491 10.3637C115.879 10.0839 115.269 9.81269 114.66 9.54999C114.176 9.341 113.941 8.79485 114.112 8.30445C113.882 8.76995 113.328 8.98573 112.839 8.78731C112.211 8.53234 111.585 8.2864 110.961 8.04933C110.444 7.85327 110.185 7.27578 110.381 6.75947ZM55.1575 7.91403C55.3786 8.42013 55.1476 9.00964 54.6415 9.23073C54.031 9.49743 53.4244 9.77125 52.8217 10.0519C52.3211 10.2851 51.7262 10.0683 51.493 9.5676C51.2599 9.06695 51.4767 8.47207 51.9774 8.23891C52.5943 7.95156 53.2155 7.67116 53.8408 7.398C54.3469 7.1769 54.9364 7.40793 55.1575 7.91403ZM126.485 8.25451C126.991 8.03307 127.581 8.26371 127.803 8.76966L128.218 9.71927C128.44 10.2252 128.209 10.8149 127.703 11.0363C127.197 11.2578 126.607 11.0271 126.386 10.5212L125.97 9.57157C125.749 9.06562 125.98 8.47596 126.485 8.25451ZM51.4717 9.57792C51.7166 10.073 51.5138 10.6728 51.0188 10.9176C50.4217 11.2129 49.8287 11.5149 49.2397 11.8232C48.7504 12.0794 48.1461 11.8904 47.89 11.4011C47.6339 10.9118 47.8228 10.3075 48.3121 10.0513C48.9145 9.736 49.5211 9.42711 50.132 9.12494C50.6271 8.88008 51.2269 9.08288 51.4717 9.57792ZM117.859 9.89031C118.1 9.39297 118.697 9.1845 119.195 9.42467C119.794 9.71417 120.395 10.0117 120.997 10.3174C121.49 10.5674 121.686 11.1693 121.436 11.6618C121.186 12.1542 120.584 12.3508 120.092 12.1008C119.501 11.801 118.913 11.5093 118.325 11.2257C117.828 10.9855 117.619 10.3876 117.859 9.89031ZM47.8684 11.4128C48.1354 11.8962 47.9601 12.5046 47.4767 12.7717C46.893 13.0942 46.3134 13.4229 45.738 13.7574C45.2605 14.035 44.6485 13.8731 44.3708 13.3956C44.0932 12.9182 44.2552 12.3061 44.7327 12.0285C45.3205 11.6866 45.9128 11.3508 46.5095 11.0211C46.9929 10.754 47.6013 10.9294 47.8684 11.4128ZM127.732 11.1033C128.238 10.8819 128.828 11.1125 129.049 11.6185L129.881 13.5177C130.102 14.0237 129.871 14.6133 129.365 14.8348C129.096 14.9528 128.803 14.9424 128.554 14.8304C128.64 15.0972 128.615 15.3986 128.458 15.6573C128.289 15.935 128.008 16.1016 127.708 16.1335C127.966 16.2143 128.183 16.3979 128.305 16.6415C128.32 16.5769 128.342 16.5144 128.37 16.455C128.306 16.1997 128.343 15.9199 128.494 15.6797C128.606 15.5023 128.764 15.372 128.943 15.2948C129.046 15.1265 129.2 14.9869 129.395 14.9018C129.901 14.6804 130.49 14.911 130.712 15.4169L131.67 17.6069L129.391 17.868C128.962 17.9172 128.565 17.6868 128.383 17.3214C128.288 17.7186 127.953 18.0327 127.524 18.0819L125.656 18.2959C125.227 18.345 124.83 18.1146 124.647 17.7492C124.552 18.1464 124.218 18.4606 123.788 18.5098L122.855 18.6168C122.306 18.6796 121.81 18.2858 121.747 17.7371C121.684 17.1884 122.078 16.6926 122.627 16.6298L123.561 16.5228C123.99 16.4736 124.387 16.704 124.569 17.0694C124.665 16.6722 124.999 16.358 125.428 16.3089L127.296 16.0949C127.299 16.0946 127.302 16.0943 127.305 16.0939C127.229 16.0703 127.155 16.0372 127.084 15.9942C126.511 15.6471 125.94 15.3076 125.37 14.9758C124.915 14.7114 124.747 14.1438 124.971 13.678C124.685 14.1087 124.111 14.2532 123.652 13.9971C123.056 13.6646 122.461 13.3404 121.867 13.0243C121.38 12.7647 121.195 12.1591 121.455 11.6716C121.715 11.1842 122.32 10.9995 122.808 11.2591C123.412 11.5812 124.019 11.9116 124.626 12.2504C125.091 12.5095 125.268 13.0844 125.04 13.5574C125.331 13.1199 125.915 12.9796 126.375 13.2471C126.916 13.5619 127.458 13.8832 128.001 14.2113L127.217 12.4204C126.996 11.9145 127.226 11.3248 127.732 11.1033ZM44.3512 13.4074C44.6389 13.8788 44.4901 14.4942 44.0187 14.782C43.4489 15.13 42.8832 15.4836 42.3219 15.8426C41.8567 16.1402 41.2383 16.0043 40.9407 15.5391C40.6431 15.0738 40.779 14.4554 41.2442 14.1578C41.8172 13.7913 42.3946 13.4303 42.9766 13.075C43.4479 12.7872 44.0634 12.9361 44.3512 13.4074ZM40.923 15.5507C41.2301 16.0098 41.1068 16.6308 40.6478 16.9379C40.092 17.3097 39.5406 17.6866 38.9937 18.0685C38.5409 18.3847 37.9175 18.2739 37.6013 17.8211C37.2851 17.3682 37.3959 16.7448 37.8487 16.4287C38.4064 16.0392 38.9688 15.6548 39.5358 15.2755C39.9949 14.9684 40.616 15.0917 40.923 15.5507ZM37.586 17.832C37.911 18.2786 37.8124 18.904 37.3658 19.229C36.8242 19.6231 36.2872 20.0219 35.7547 20.4252C35.3145 20.7586 34.6873 20.672 34.3538 20.2318C34.0204 19.7915 34.107 19.1643 34.5472 18.8308C35.0897 18.42 35.637 18.0135 36.1891 17.6118C36.6357 17.2869 37.2611 17.3854 37.586 17.832ZM34.3387 20.2436C34.6803 20.6775 34.6054 21.3062 34.1714 21.6478C33.6449 22.0623 33.1232 22.4809 32.6062 22.9034C32.1786 23.2529 31.5486 23.1896 31.1991 22.762C30.8496 22.3344 30.9129 21.7044 31.3406 21.3549C31.8669 20.9247 32.3982 20.4984 32.9344 20.0763C33.3683 19.7347 33.9971 19.8096 34.3387 20.2436ZM31.1832 22.7753C31.5403 23.1966 31.4882 23.8277 31.0669 24.1848C30.556 24.6179 30.05 25.0546 29.5489 25.4947C29.134 25.8592 28.5021 25.8182 28.1377 25.4033C27.7732 24.9883 27.8141 24.3565 28.2291 23.992C28.7388 23.5443 29.2537 23.0999 29.7737 22.6591C30.195 22.302 30.8261 22.354 31.1832 22.7753ZM28.1205 25.4187C28.4921 25.8273 28.4621 26.4597 28.0534 26.8313C27.5583 27.2816 27.0682 27.735 26.5833 28.1911C26.181 28.5695 25.5481 28.5502 25.1697 28.1479C24.7913 27.7457 24.8106 27.1128 25.2129 26.7344C25.7059 26.2706 26.2043 25.8095 26.7079 25.3516C27.1165 24.98 27.749 25.01 28.1205 25.4187ZM25.151 28.1659C25.5361 28.5618 25.5273 29.1949 25.1314 29.58C24.6522 30.0461 24.1783 30.5148 23.7098 30.9856C23.3202 31.3771 22.687 31.3787 22.2956 30.9891C21.9041 30.5996 21.9025 29.9664 22.292 29.5749C22.7681 29.0964 23.2498 28.6201 23.7369 28.1463C24.1328 27.7612 24.7659 27.77 25.151 28.1659ZM22.2748 31.0104C22.6726 31.3935 22.6844 32.0266 22.3013 32.4243C21.8374 32.9059 21.379 33.3894 20.9264 33.8745C20.5496 34.2783 19.9168 34.3002 19.513 33.9234C19.1092 33.5467 19.0873 32.9139 19.4641 32.5101C19.9239 32.0173 20.3895 31.5261 20.8609 31.0368C21.244 30.639 21.8771 30.6272 22.2748 31.0104ZM19.4923 33.946C19.902 34.3164 19.934 34.9487 19.5636 35.3584C19.1145 35.8553 18.6713 36.3535 18.2341 36.8526C17.8702 37.268 17.2385 37.3098 16.823 36.9459C16.4076 36.5819 16.3658 35.9502 16.7297 35.5347C17.1737 35.0279 17.6238 34.522 18.0799 34.0173C18.4502 33.6076 19.0826 33.5757 19.4923 33.946ZM16.804 36.9679C17.2251 37.3253 17.2767 37.9563 16.9193 38.3774C16.4852 38.8888 16.0574 39.4009 15.636 39.9132C15.2851 40.3397 14.6549 40.401 14.2284 40.0501C13.8019 39.6993 13.7406 39.0691 14.0914 38.6426C14.5193 38.1224 14.9537 37.6025 15.3945 37.0832C15.7519 36.6621 16.383 36.6105 16.804 36.9679ZM14.2109 40.0718C14.6428 40.416 14.7139 41.0452 14.3696 41.4771C13.9509 42.0024 13.539 42.5276 13.1339 43.0522C12.7963 43.4894 12.1683 43.5701 11.7312 43.2326C11.2941 42.895 11.2133 42.267 11.5509 41.8299C11.9622 41.2972 12.3805 40.764 12.8056 40.2305C13.1498 39.7986 13.779 39.7276 14.2109 40.0718ZM11.7145 43.2545C12.1568 43.5852 12.2473 44.2119 11.9166 44.6542C11.514 45.1928 11.1187 45.7303 10.7308 46.2663C10.407 46.7137 9.78185 46.8139 9.33443 46.4901C8.88701 46.1664 8.78678 45.5412 9.11055 45.0938C9.50449 44.5494 9.90593 44.0035 10.3148 43.4566C10.6455 43.0143 11.2722 42.9238 11.7145 43.2545ZM9.3176 46.5137C9.77009 46.8304 9.88022 47.4539 9.56357 47.9064C9.1781 48.4572 8.80066 49.006 8.43135 49.5521C8.12198 50.0096 7.50031 50.1297 7.04281 49.8203C6.5853 49.511 6.46522 48.8893 6.77459 48.4318C7.14987 47.8768 7.53335 47.3193 7.92494 46.7597C8.24158 46.3072 8.8651 46.1971 9.3176 46.5137ZM7.02453 49.8477C7.48707 50.1495 7.61739 50.7691 7.31561 51.2317C6.94901 51.7936 6.59129 52.3521 6.24255 52.9067C5.94856 53.3742 5.33122 53.5149 4.86369 53.2209C4.39616 52.9269 4.25548 52.3096 4.54947 51.842C4.90417 51.278 5.26791 50.71 5.64059 50.1388C5.94238 49.6763 6.56198 49.546 7.02453 49.8477ZM4.84251 53.255C5.31516 53.5407 5.4667 54.1555 5.181 54.6281C4.83273 55.2043 4.49458 55.7754 4.16667 56.3408C3.88959 56.8185 3.27768 56.9812 2.79993 56.7041C2.32218 56.427 2.15951 55.8151 2.43659 55.3374C2.77062 54.7614 3.11493 54.1799 3.4694 53.5935C3.75511 53.1209 4.36987 52.9693 4.84251 53.255ZM2.78331 56.733C3.26634 57.0008 3.44084 57.6094 3.17307 58.0925C3.0131 58.3811 2.85595 58.6679 2.70164 58.9529C2.43867 59.4385 1.83178 59.6191 1.34612 59.3561C0.860465 59.0931 0.67994 58.4862 0.94291 58.0006C1.10039 57.7097 1.26071 57.4171 1.42387 57.1228C1.69163 56.6398 2.30028 56.4653 2.78331 56.733Z" fill="#00A9E2"/>
</svg>
